<?xml version="1.0" encoding="iso-8859-1"?>
<!-- Uploaded to: SVG Repo, www.svgrepo.com, Generator: SVG Repo Mixer Tools -->
<svg fill="#000000" height="800px" width="800px" version="1.1" id="Layer_1" xmlns="http://www.w3.org/2000/svg" xmlns:xlink="http://www.w3.org/1999/xlink" 
	 viewBox="0 0 512 512" xml:space="preserve">
<g>
	<g>
		<path d="M222.608,66.785c-27.619,0-50.088,22.47-50.088,50.088c0,27.619,22.47,50.089,50.088,50.089
			c27.619,0,50.088-22.47,50.088-50.089C272.696,89.254,250.226,66.785,222.608,66.785z M222.608,133.569
			c-9.206,0-16.696-7.49-16.696-16.696c0-9.206,7.49-16.696,16.696-16.696c9.206,0,16.696,7.49,16.696,16.696
			C239.304,126.079,231.814,133.569,222.608,133.569z"/>
	</g>
</g>
<g>
	<g>
		<circle cx="255.997" cy="217.05" r="16.696"/>
	</g>
</g>
<g>
	<g>
		<circle cx="122.427" cy="278.269" r="16.696"/>
	</g>
</g>
<g>
	<g>
		<circle cx="322.781" cy="361.75" r="16.696"/>
	</g>
</g>
<g>
	<g>
		<circle cx="356.174" cy="116.873" r="16.696"/>
	</g>
</g>
<g>
	<g>
		<path d="M480.309,92.91C420.394,32.996,340.732,0,256,0C171.267,0,91.606,32.996,31.69,92.91
			c-3.158,3.156-4.879,7.463-4.892,11.76c0,0.017-0.002,0.032-0.002,0.049v178.092c0,4.429,1.76,8.675,4.891,11.805l80.491,80.491
			c9.342,9.344,25.403,4.613,28.142-8.356c2.868-13.581,10.135-21.697,15.503-21.697c6.808,0,16.696,13.009,16.696,33.392
			c0,10.923-3.085,21.361-8.253,27.92c-5.236,6.645-4.674,16.157,1.309,22.139l78.617,78.617c6.503,6.506,17.12,6.5,23.617,0
			l212.504-212.504c3.131-3.131,4.891-7.378,4.891-11.806V104.719C485.204,100.451,483.526,96.125,480.309,92.91z M239.303,455.012
			l-40.94-40.94c4.874-10.533,7.548-22.904,7.548-35.625c0.001-64.053-58.571-88.471-87.704-44.532l-58.242-58.018V145.027
			l179.338,179.115V455.012z M256,293.616L67.444,105.059C119.448,58.719,185.775,33.392,256,33.392s136.552,25.327,188.556,71.667
			l-66.792,66.794c-3.131,3.131-4.891,7.378-4.891,11.805v66.785c0,9.206-7.49,16.696-16.696,16.696
			c-9.206,0-16.696-7.49-16.696-16.696c0-14.873-18.036-22.278-28.501-11.805L256,293.616z M451.811,275.896L272.585,455.012
			V324.143l43.637-43.526c9.152,12.09,23.657,19.914,39.955,19.914c27.619,0,49.977-22.47,49.977-50.088v-59.869l45.657-45.546
			V275.896z"/>
	</g>
</g>
</svg>